/* XPM */
static char *_908c429417440f39f2a5161ac798d4b[] = {
/* columns rows colors chars-per-pixel */
"32 32 178 2 ",
"   c #0C0709",
".  c #0E090B",
"X  c #0E0A0B",
"o  c #110A08",
"O  c #110B08",
"+  c #110C0A",
"@  c #110C0B",
"#  c #120D0B",
"$  c #140E0D",
"%  c #1B120F",
"&  c #151110",
"*  c #151212",
"=  c #1B1311",
"-  c #1F1210",
";  c #1E1412",
":  c #1F1412",
">  c #1F1512",
",  c #1C1618",
"<  c #1C1718",
"1  c #1C1719",
"2  c #151D1F",
"3  c #151E1F",
"4  c #191A1B",
"5  c #1B1A1B",
"6  c #1E1819",
"7  c #1A1B1C",
"8  c #1F191C",
"9  c #1E1B1D",
"0  c #1A1D1D",
"q  c #1F1C1C",
"w  c #1E1C1D",
"e  c #1F1D1E",
"r  c #1F1D1F",
"t  c #1D1E1F",
"y  c #201613",
"u  c #211415",
"i  c #211416",
"p  c #201A17",
"a  c #21181A",
"s  c #22181A",
"d  c #22191A",
"f  c #201C1A",
"g  c #201D1E",
"h  c #201E1E",
"j  c #201E1F",
"k  c #201F1F",
"l  c #161722",
"z  c #151E20",
"x  c #1A1F20",
"c  c #1B1F20",
"v  c #1E1F22",
"b  c #201F20",
"n  c #1D2021",
"m  c #1E2021",
"M  c #1F2021",
"N  c #202021",
"B  c #202121",
"V  c #202122",
"C  c #202223",
"Z  c #212223",
"A  c #262722",
"S  c #212324",
"D  c #222325",
"F  c #222526",
"G  c #262527",
"H  c #292626",
"J  c #202728",
"K  c #222A2C",
"L  c #242D2D",
"P  c #312829",
"I  c #393B21",
"U  c #253231",
"Y  c #243331",
"T  c #253332",
"R  c #263735",
"E  c #2F3031",
"W  c #432E2F",
"Q  c #442C2D",
"!  c #472E2E",
"~  c #482F2E",
"^  c #48302F",
"/  c #54302F",
"(  c #412E32",
")  c #433034",
"_  c #4B3133",
"`  c #533230",
"'  c #6E3938",
"]  c #29423E",
"[  c #29423F",
"{  c #29443F",
"}  c #414221",
"|  c #424321",
" . c #454521",
".. c #213841",
"X. c #213941",
"o. c #223841",
"O. c #213942",
"+. c #2B4441",
"@. c #23404A",
"#. c #2E554F",
"$. c #2E5750",
"%. c #2E5751",
"&. c #2F5751",
"*. c #2F5851",
"=. c #2F5F57",
"-. c #21505D",
";. c #32675F",
":. c #336961",
">. c #346A61",
",. c #376E66",
"<. c #3A7B71",
"1. c #616466",
"2. c #737473",
"3. c #737574",
"4. c #727475",
"5. c #747675",
"6. c #757675",
"7. c #757676",
"8. c #AF4F48",
"9. c #B24E44",
"0. c #B45146",
"q. c #B95249",
"w. c #BA5249",
"e. c #BD534B",
"r. c #C5534A",
"t. c #CA574D",
"y. c #ADAC1D",
"u. c #B2B01C",
"i. c #BDBC1C",
"p. c #247D9B",
"a. c #257E9B",
"s. c #2273A1",
"d. c #2373A1",
"f. c #2376A6",
"g. c #3F9284",
"h. c #3F9384",
"j. c #3F9585",
"k. c #3E9586",
"l. c #24809D",
"z. c #2385A5",
"x. c #2284BD",
"c. c #409989",
"v. c #40988A",
"b. c #439B8E",
"n. c #7D8080",
"m. c #45A696",
"M. c #068DDC",
"N. c #098FDC",
"B. c #0A8FDC",
"V. c #2387C2",
"C. c #239BE0",
"Z. c #249BE0",
"A. c #24A0E8",
"S. c #26BBE8",
"D. c #26BAE9",
"F. c #26BBE9",
"G. c #27BBE9",
"H. c #27BCEB",
"J. c #28BCEA",
"K. c #28BCEB",
"L. c #28BDEB",
"P. c #2BBEEE",
"I. c #28CDFF",
"U. c #76C1EB",
"Y. c #76C1EC",
"T. c #78C1EC",
"R. c #868A8D",
"E. c #878A8E",
"W. c #888B8F",
"Q. c #888C8F",
"!. c #929597",
"~. c #92C2D6",
"^. c #86C8EE",
"/. c #AFEBFF",
"(. c #BDFEFF",
"). c #FFFEFE",
"_. c gray100",
"`. c None",
/* pixels */
"`.`.`.`.`.`.`.`.`.`.`.`._._._._._._._._.`.`.`.`.`.`.`.`.`.`.`.`.",
"`.`.`.`.`.`.`.`.`._._._._._._._._._._._._._._.`.`.`.`.`.`.`.`.`.",
"`.`.`.`.`.`.`.`._._._._._._._._._._._._._._._._.`.`.`.`.`.`.`.`.",
"`.`.`.`.`.`._._._._._._._._._._._._._._._._._._._._.`.`.`.`.`.`.",
"`.`.`.`.`._._._._._._._._._._._._._._._._._._._._._._.`.`.`.`.`.",
"`.`.`.`._._._._._._._._._._._._._._._._._._._._._._._._.`.`.`.`.",
"`.`.`._._._._._._._._._._._._._._._._._._._._._._._._._._.`.`.`.",
"`.`.`._._._._._._._._._._._._._._._._._._._._._._._._._._.`.`.`.",
"`.`._._._._._._._._._._._._._._._._._._._._._._._._._._._._.`.`.",
"`._._._._._._.^.M.N.N.N.N.N.N.N.N.N.N.N.N.N.N.N.N.N.N.N.N.N.`.`.",
"`._._._._._._.Y.Z.C.C.C.C.C.C.C.C.C.C.C.C.C.C.C.C.C.C.C.C.C.C.`.",
"`._._._._._._.Y.Z.C.C.C.C.C.C.C.C.C.C.C.C.C.C.Z.C.C.C.C.C.C.C.`.",
"_._._._._._._.U.A.x.V.V.V.V.V.V.V.V.V.V.V.V.V.V.V.V.V.V.V.V.V.`.",
"_._._._._._._.U.d.p f f f f f f f f f f f f f f f f f f f f f q ",
"_._._._._._._.U.f.j S @ # # # # # # # # * V V V V V V V V V V E ",
"_._._._._._._.U.f.j * (././././././././.~.5 V V V V V V V V V S ",
"_._._._._._._.U.f.j S   . . . # # O O O $ b b V j k v S b V V S ",
"_._._._._._._.U.f.v l i.y.y.u.I O.z.a.a.p.p.p.p.a.a.z.K S v V E ",
"_._._._._._._.U.f.j n | } } | A J O.o.o.o.o.o.o.O.R O.F V V V b ",
"_._._._._._._.U.f.j q =.*.*.*.*.$.$.$.$.&.$.$.$.j V m m V V V S ",
"`._._._._._._.U.f.j q ,.:.:.:.>.:.:.:.:.:.:.:.;.5 V V V V V V `.",
"`._._._._._._.U.f.j M _ ~ ^ H G +.[ [ +.V P ~ ~ ~ Q v V V V V `.",
"`._._._._._._.U.f.j z t.q.e./ R b.v.v.m.f ' q.q.q.8.z V V V `.`.",
"`.`._._._._._.U.f.v M 1 , , f a u u u u f a 7 x 0 v V V V V `.`.",
"`.`.`._._._._.U.f.j y I.G.G.F.F.F.P.H.H.J.P.-.V V V V V V `.`.`.",
"`.`.`._._._._.U.f.v V % = = > > - - - - - > j V V V V V V `.`.`.",
"`.`.`.`._._._.U.f.v z t.9.0./ +.k.k.g.g.<.q V V V V V V `.`.`.`.",
"`.`.`.`.`._._.U.f.M n _ ( W G S U U Y Y L S V V V V V `.`.`.`.`.",
"`.`.`.`.`.`._.T.f.j 4 !.E.E.W.W.E.E.4.q V V V V V V `.`.`.`.`.`.",
"`.`.`.`.`.`.`.`.d.j 0 7.6.6.6.2.6.6.1.n V V V V `.`.`.`.`.`.`.`.",
"`.`.`.`.`.`.`.`.`.`.V V V V S S S S m S V V `.`.`.`.`.`.`.`.`.`.",
"`.`.`.`.`.`.`.`.`.`.`.`.V M E S S E M M `.`.`.`.`.`.`.`.`.`.`.`."
};
