/* XPM */
static char *b52981b6d04549d7836e9ca5d2bcd0c9[] = {
/* columns rows colors chars-per-pixel */
"16 16 87 1 ",
"  c #191A1B",
". c #1C1C1D",
"X c #1D1E1F",
"o c #2C1916",
"O c #311110",
"+ c #3E3604",
"@ c #3E3C14",
"# c #181E20",
"$ c #1F2021",
"% c #1F2122",
"& c #102B34",
"* c #202122",
"= c #202123",
"- c #202223",
"; c #202527",
": c #252627",
"> c #2B2123",
", c #282627",
"< c #202629",
"1 c #202A2D",
"2 c #29342E",
"3 c #2C3636",
"4 c #273F3E",
"5 c #283C3B",
"6 c #4A2724",
"7 c #512F2F",
"8 c #752E27",
"9 c #733A35",
"0 c #733B37",
"q c #2D4138",
"w c #304438",
"e c #5A5305",
"r c #113A47",
"t c #213F49",
"y c #1C4A56",
"u c #1C455E",
"i c #1D455E",
"p c #1D465F",
"a c #1C4959",
"s c #274242",
"d c #284342",
"f c #284343",
"g c #2B4643",
"h c #2B4743",
"j c #384C47",
"k c #384D49",
"l c #3B484E",
"z c #2D534C",
"x c #2E534D",
"c c #33554B",
"v c #345A4E",
"b c #1F4760",
"n c #204D67",
"m c #235362",
"M c #22506C",
"N c #22516D",
"B c #2E6A60",
"V c #326A61",
"C c #464748",
"Z c #465757",
"A c #56595A",
"S c #833E39",
"D c #176D86",
"F c #1D6893",
"G c #226983",
"H c #226984",
"J c #217088",
"K c #24728D",
"L c #698893",
"P c #6A8993",
"I c #6A8A95",
"U c #209AE0",
"Y c #239DE3",
"T c #259DE2",
"R c #7DC4ED",
"E c #868A8B",
"W c #898C8D",
"Q c #8B8C8E",
"! c #82C6ED",
"~ c #86C8EE",
"^ c #BFE2F6",
"/ c #B5E1FC",
"( c #C0E3F8",
") c #C0E5F9",
"_ c #E5F3FB",
"` c gray100",
"' c None",
/* pixels */
"'''''``````'''''",
"'''``````````'''",
"''````````````''",
"'``````````````'",
"'``_R!!!!!!!!!~'",
"```^UTTTTTTTTTTY",
"```(FNNNNNNMMMNn",
"```)pZLLLIl=***:",
"```)p@e+&rammt*:",
"```)p2wq4ddf<<*$",
"```(u3jgzzgk>***",
"'``(u68ocvO90#*'",
"'``)pyDJGHK1***'",
"''`)p7S:BV5***''",
"'''/bAEQQC***'''",
"'''''. **X*'''''"
};
