/* XPM */
static char *_0f926499cfa4c10adf425a25b12546a[] = {
/* columns rows colors chars-per-pixel */
"64 64 117 2 ",
"   c #0E0E0F",
".  c #130F0E",
"X  c #151110",
"o  c #1C1215",
"O  c #171718",
"+  c #161E1F",
"@  c #1F1C1D",
"#  c #201A1A",
"$  c #1C1F20",
"%  c #201F20",
"&  c #1F2122",
"*  c #1F282B",
"=  c #202122",
"-  c #242228",
";  c #292C2F",
":  c #373821",
">  c #222C31",
",  c #293334",
"<  c #283837",
"1  c #23373B",
"2  c #293738",
"3  c #2C3A3B",
"4  c #4D3335",
"5  c #553536",
"6  c #533833",
"7  c #583836",
"8  c #6A3634",
"9  c #743E3D",
"0  c #7A3E3C",
"q  c #70701F",
"w  c #78771F",
"e  c #78791F",
"r  c #424321",
"t  c #565620",
"y  c #5C5C20",
"u  c #7B413C",
"i  c #3E3F40",
"p  c #6E3A40",
"a  c #703F43",
"s  c #1E474E",
"d  c #22444C",
"f  c #2C514B",
"g  c #214750",
"h  c #274B53",
"j  c #2D5A52",
"k  c #33655E",
"l  c #214A62",
"z  c #23576B",
"x  c #23596A",
"c  c #346961",
"v  c #386C65",
"b  c #35746B",
"n  c #6F4043",
"m  c #754243",
"M  c #794141",
"N  c #7F4349",
"B  c #863C3C",
"V  c #BF4C48",
"C  c #B75148",
"Z  c #C75449",
"A  c #D65C50",
"S  c #E25E51",
"D  c #E35D5A",
"F  c #DE6554",
"G  c #E36050",
"H  c #FC6351",
"J  c #FA6359",
"K  c #398377",
"L  c #EDEB1A",
"P  c #FFFF19",
"I  c #21678F",
"U  c #226B96",
"Y  c #227C94",
"T  c #637F88",
"R  c #3E8F83",
"E  c #3F9789",
"W  c #3F9889",
"Q  c #2788A7",
"!  c #409889",
"~  c #63808A",
"^  c #42A594",
"/  c #4BB7A5",
"(  c #4AB9A6",
")  c #4BBFAA",
"_  c #51BDAC",
"`  c #4CC0AC",
"'  c #49CBB3",
"]  c #078EDC",
"[  c #0D91DD",
"{  c #1796DE",
"}  c #1B97DF",
"|  c #239ADF",
" . c #369FD9",
".. c #27A6D4",
"X. c #28A7D3",
"o. c #24ADD4",
"O. c #2AA8D4",
"+. c #26B1DF",
"@. c #239BE0",
"#. c #29B7E3",
"$. c #41A9E4",
"%. c #828789",
"&. c #878D90",
"*. c #9FD4E7",
"=. c #9ED3EC",
"-. c #ACE6FC",
";. c #D5DADC",
":. c #D9DDDB",
">. c #DDE1DF",
",. c #DEE2E0",
"<. c #DBEEFA",
"1. c #E0E4E2",
"2. c #EAF1F5",
"3. c #EEF4F9",
"4. c #F1F7FD",
"5. c #FFFFFF",
"6. c None",
/* pixels */
"6.6.6.6.6.6.6.6.6.6.6.6.6.6.6.6.6.6.6.6.6.6.6.6.6.6.6.6.5.5.5.5.5.5.5.5.6.6.6.6.6.6.6.6.6.6.6.6.6.6.6.6.6.6.6.6.6.6.6.6.6.6.6.6.",
"6.6.6.6.6.6.6.6.6.6.6.6.6.6.6.6.6.6.6.6.6.6.6.5.5.5.5.5.5.5.5.5.5.5.5.5.5.5.5.5.5.6.6.6.6.6.6.6.6.6.6.6.6.6.6.6.6.6.6.6.6.6.6.6.",
"6.6.6.6.6.6.6.6.6.6.6.6.6.6.6.6.6.6.6.6.6.5.5.5.5.5.5.5.5.5.5.5.5.5.5.5.5.5.5.5.5.5.5.5.6.6.6.6.6.6.6.6.6.6.6.6.6.6.6.6.6.6.6.6.",
"6.6.6.6.6.6.6.6.6.6.6.6.6.6.6.6.6.6.5.5.5.5.5.5.5.5.5.5.5.5.5.5.5.5.5.5.5.5.5.5.5.5.5.5.5.5.6.6.6.6.6.6.6.6.6.6.6.6.6.6.6.6.6.6.",
"6.6.6.6.6.6.6.6.6.6.6.6.6.6.6.6.5.5.5.5.5.5.5.5.5.5.5.5.5.5.5.5.5.5.5.5.5.5.5.5.5.5.5.5.5.5.5.5.6.6.6.6.6.6.6.6.6.6.6.6.6.6.6.6.",
"6.6.6.6.6.6.6.6.6.6.6.6.6.6.5.5.5.5.5.5.5.5.5.5.5.5.5.5.5.5.5.5.5.5.5.5.5.5.5.5.5.5.5.5.5.5.5.5.5.5.6.6.6.6.6.6.6.6.6.6.6.6.6.6.",
"6.6.6.6.6.6.6.6.6.6.6.6.6.5.5.5.5.5.5.5.5.5.5.5.5.5.5.5.5.5.5.5.5.5.5.5.5.5.5.5.5.5.5.5.5.5.5.5.5.5.5.6.6.6.6.6.6.6.6.6.6.6.6.6.",
"6.6.6.6.6.6.6.6.6.6.6.6.5.5.5.5.5.5.5.5.5.5.5.5.5.5.5.5.5.5.5.5.5.5.5.5.5.5.5.5.5.5.5.5.5.5.5.5.5.5.5.5.5.6.6.6.6.6.6.6.6.6.6.6.",
"6.6.6.6.6.6.6.6.6.6.6.5.5.5.5.5.5.5.5.5.5.5.5.5.5.5.5.5.5.5.5.5.5.5.5.5.5.5.5.5.5.5.5.5.5.5.5.5.5.5.5.5.5.6.6.6.6.6.6.6.6.6.6.6.",
"6.6.6.6.6.6.6.6.6.6.5.5.5.5.5.5.5.5.5.5.5.5.5.5.5.5.5.5.5.5.5.5.5.5.5.5.5.5.5.5.5.5.5.5.5.5.5.5.5.5.5.5.5.5.6.6.6.6.6.6.6.6.6.6.",
"6.6.6.6.6.6.6.6.6.5.5.5.5.5.5.5.5.5.5.5.5.5.5.5.5.5.5.5.5.5.5.5.5.5.5.5.5.5.5.5.5.5.5.5.5.5.5.5.5.5.5.5.5.5.5.6.6.6.6.6.6.6.6.6.",
"6.6.6.6.6.6.6.6.5.5.5.5.5.5.5.5.5.5.5.5.5.5.5.5.5.5.5.5.5.5.5.5.5.5.5.5.5.5.5.5.5.5.5.5.5.5.5.5.5.5.5.5.5.5.5.5.6.6.6.6.6.6.6.6.",
"6.6.6.6.6.6.6.5.5.5.5.5.5.5.5.5.5.5.5.5.5.5.5.5.5.5.5.5.5.5.5.5.5.5.5.5.5.5.5.5.5.5.5.5.5.5.5.5.5.5.5.5.5.5.5.5.5.6.6.6.6.6.6.6.",
"6.6.6.6.6.6.5.5.5.5.5.5.5.5.5.5.5.5.5.5.5.5.5.5.5.5.5.5.5.5.5.5.5.5.5.5.5.5.5.5.5.5.5.5.5.5.5.5.5.5.5.5.5.5.5.5.5.5.6.6.6.6.6.6.",
"6.6.6.6.6.5.5.5.5.5.5.5.5.5.5.5.5.5.5.5.5.5.5.5.5.5.5.5.5.5.5.5.5.5.5.5.5.5.5.5.5.5.5.5.5.5.5.5.5.5.5.5.5.5.5.5.5.5.5.6.6.6.6.6.",
"6.6.6.6.6.5.5.5.5.5.5.5.5.5.5.5.5.5.5.5.5.5.5.5.5.5.5.5.5.5.5.5.5.5.5.5.5.5.5.5.5.5.5.5.5.5.5.5.5.5.5.5.5.5.5.5.5.5.5.6.6.6.6.6.",
"6.6.6.6.5.5.5.5.5.5.5.5.5.5.5.5.5.5.5.5.5.5.5.5.5.5.5.5.5.5.5.5.5.5.5.5.5.5.5.5.5.5.5.5.5.5.5.5.5.5.5.5.5.5.5.5.5.5.5.5.6.6.6.6.",
"6.6.6.6.5.5.5.5.5.5.5.5.5.5.5.5.5.5.5.5.5.5.5.5.5.5.5.5.5.5.5.5.5.5.5.5.5.5.5.5.5.5.5.5.5.5.5.5.5.5.5.5.5.5.5.5.5.5.5.5.6.6.6.6.",
"6.6.6.5.5.5.5.5.5.5.5.5.5.5.5.$.] [ [ [ [ [ [ [ [ [ [ [ [ [ [ [ [ [ [ [ [ [ [ [ [ [ [ [ [ [ [ [ [ [ [ [ [ [ [ [ [ [ [ {  .6.6.6.",
"6.6.6.5.5.5.5.5.5.5.5.5.5.5.<.{ | @.@.| @.@.@.@.| @.@.@.@.@.@.@.@.@.| @.@.@.@.| @.@.@.@.| @.@.| @.@.@.@.@.@.@.| @.| @.@.@.6.6.6.",
"6.6.6.5.5.5.5.5.5.5.5.5.5.5.<.{ @.@.@.@.| @.| @.| @.@.@.@.@.@.@.@.@.@.@.@.@.| @.| @.@.| | @.@.@.| @.| @.@.@.@.@.@.@.@.@.@.6.6.6.",
"6.6.5.5.5.5.5.5.5.5.5.5.5.5.<.{ | @.| @.@.@.@.@.@.@.@.| @.@.| @.@.| @.| @.@.@.@.@.@.@.@.@.@.@.@.@.@.@.@.@.| @.@.@.| @.@.@.@.6.6.",
"6.6.5.5.5.5.5.5.5.5.5.5.5.5.<.{ @.@.| @.| @.@.| @.@.@.| | @.@.| @.@.@.@.@.| @.@.| @.@.| | | | | @.@.@.@.@.| @.| @.| @.| @.@.6.6.",
"6.5.5.5.5.5.5.5.5.5.5.5.5.5.<.{ @.@.@.@.@.@.@.@.| @.@.@.@.@.@.| | @.| @.@.@.| @.@.@.@.@.| | | | | @.| @.@.@.@.@.@.@.@.@.| @.@.6.",
"6.5.5.5.5.5.5.5.5.5.5.5.5.5.<.{ | @.@.@.| | | | | | | | | | | | | | | | | | | | | | | | | | | | | | | | | | | | | | | | | | | 6.",
"6.5.5.5.5.5.5.5.5.5.5.5.5.5.<.{ @.@.I U U U U U U U U U U U U U U U U U U U U U U U U U U U U U U U U U U U U U U U U U U U I 6.",
"6.5.5.5.5.5.5.5.5.5.5.5.5.5.<.{ @.l & & = = % = = = = = = = = = = = = = & % = = = = = = = = = = = = % & = = = = = = = = = = = 6.",
"6.5.5.5.5.5.5.5.5.5.5.5.5.5.<.{ @.l = = = = & = = = = = = = = = = = = = = % = = = = = = = = = = = = % % % = = = = = = = = = = 6.",
"5.5.5.5.5.5.5.5.5.5.5.5.5.5.<.{ @.l = = = = & = = = = = = = = = = = = = = = = = = = = = = = = = = = = = = = = = = = = = = = = i ",
"5.5.5.5.5.5.5.5.5.5.5.5.5.5.<.{ @.l = = & - O X X . X X X X X X X X X X X X X X X O = = = = = = = = = = = = = = = = = = = = & i ",
"5.5.5.5.5.5.5.5.5.5.5.5.5.5.<.{ @.l - & & & *.=.*.*.=.=.=.=.=.=.=.=.=.=.=.=.*.*.*.T = = = = = = = & = = = = = = = = & = = = = ; ",
"5.5.5.5.5.5.5.5.5.5.5.5.5.5.<.{ @.l & & = & -.=.=.=.=.=.=.=.=.=.=.=.=.=.=.=.=.=.*.~ = = & = = = = = = = & = = = = = = = = = = = ",
"5.5.5.5.5.5.5.5.5.5.5.5.5.5.<.{ @.l = = = = . X X X X X X X X X X X X X X X X X X O = = = = = = = = = = & & = = = = = = = = = = ",
"5.5.5.5.5.5.5.5.5.5.5.5.5.5.<.{ @.l = = = = = = = = & = = = = = = = = = & = = & & & = = = = = & & = = = & & = = = = = = = = = ; ",
"5.5.5.5.5.5.5.5.5.5.5.5.5.5.<.{ @.l = = = = y t t t t t t t : = = 1 g g g g g g g g g g g g g g g g g g g g * = = = = & = = = i ",
"5.5.5.5.5.5.5.5.5.5.5.5.5.5.<.{ @.l = = & % P L L L L L L L e = $ Q ..O.....O.X...O.O.O.O.O.O...X.X.X.X...#.h = = = = = = = = i ",
"6.5.5.5.5.5.5.5.5.5.5.5.5.5.<.{ @.l - & = = e q q q q q q q r = = d z z z z z z z z z z z z z z z z z z z x > = = & = = = & = 6.",
"6.5.5.5.5.5.5.5.5.5.5.5.5.5.<.{ @.l & & = = = = = = = = = = = = = = = = & = = = = = = = = = = = = & = = & = = = = = = = = = = 6.",
"6.5.5.5.5.5.5.5.5.5.5.5.5.5.<.{ @.l = = = = @ @ # @ % % @ # = # @ # @ @ # $ $ # # % # $ @ @ @ @ = = = = = = = = = = = = = = = 6.",
"6.5.5.5.5.5.5.5.5.5.5.5.5.5.<.{ @.l = = = = ^ ! W W W W W W ! ! W ! ! W ! W W ! ! ! ! ! ! W ! K @ = = = = = = = = = = = = = = 6.",
"6.5.5.5.5.5.5.5.5.5.5.5.5.5.<.{ @.z = = = $ _ ) ) ) ) ) ` ( ( ` ) ) ) ) ) ` ) ) ) ) ) ) ) ) ) ^ @ = = = = = = = = = = = = = = 6.",
"6.6.5.5.5.5.5.5.5.5.5.5.5.5.<.{ @.l = & = = o o o o o o o o o o o o o o o o o o o o o o o o o o & = = = = = = = = = = = = = 6.6.",
"6.6.5.5.5.5.5.5.5.5.5.5.5.5.<.{ @.l - & = = = = = = & & = = = = = & = = = = = = = = = = = = = = % = = = = = = = = = = & = = 6.6.",
"6.6.5.5.5.5.5.5.5.5.5.5.5.5.<.{ @.l & & = % N M 0 0 0 u 6 = = 3 v c c c c c c v = = $ M u u B 0 0 0 B 7 & = = = = = = = = = 6.6.",
"6.6.6.5.5.5.5.5.5.5.5.5.5.5.<.{ @.l = = = = J S S S S D C % = k ( ( ( ( ( ( / ' = = + J S S S S S S A Z + = = = = = = = = 6.6.6.",
"6.6.6.5.5.5.5.5.5.5.5.5.5.5.<.{ @.l = = = = a 0 0 0 0 u 6 & = < k k k k k k k c = = $ 9 0 0 0 a 0 0 0 7 $ = = = = = = = = 6.6.6.",
"6.6.6.6.5.5.5.5.5.5.5.5.5.5.<.} @.l = = = = = = % = = = & & = = & = = % $ % = = = = = = $ = = = = = % = = = = = & = = = 6.6.6.6.",
"6.6.6.6.5.5.5.5.5.5.5.5.5.5.<.} @.l = = = = - - - - - - - - - = - - - - - - - - - - - = & = = = = = = = = = = = = = = = 6.6.6.6.",
"6.6.6.6.6.5.5.5.5.5.5.5.5.5.<.{ @.l - & = % #.o.o.o.o.o.o.o.o.o.o.o.+.o.o.o.o.o.o.o.o.X.Y = = = = = = = = = = = = = = 6.6.6.6.6.",
"6.6.6.6.6.6.5.5.5.5.5.5.5.5.<.{ @.l * & = = #.X.X.X.X.X.X.X.X.X.O.X.O.X.O.O.O.O.O.O.O.X.Y = = = = = = = & = = = = = 6.6.6.6.6.6.",
"6.6.6.6.6.6.5.5.5.5.5.5.5.5.<.{ @.l = = = = @ # # # o # # # # # # # # # # # # # # # # # # = = = = = = = = = = = = = 6.6.6.6.6.6.",
"6.6.6.6.6.6.6.5.5.5.5.5.5.5.<.{ @.l = = = = % = = = = = = = = = = = = = = = = = = = = = = = = = = = = = = = = = = 6.6.6.6.6.6.6.",
"6.6.6.6.6.6.6.6.5.5.5.5.5.5.<.{ @.l - & = & p 8 8 8 8 8 4 = = 3 j j j j j j j j j 3 = = = = = = = = = = = = = = 6.6.6.6.6.6.6.6.",
"6.6.6.6.6.6.6.6.6.5.5.5.5.5.<.{ @.l & & = & H G G G G G V $ % R / ( ( ( ( / / / / b = = = = = & = = = = = = = 6.6.6.6.6.6.6.6.6.",
"6.6.6.6.6.6.6.6.6.6.5.5.5.5.<.{ @.l = = = & m n a a n 9 4 & = < f f f f f f f f f , = = = = = = % = = = = = 6.6.6.6.6.6.6.6.6.6.",
"6.6.6.6.6.6.6.6.6.6.6.5.5.5.<.{ @.l = = = = = = = = = = & = = = = = = = = = = = = = = = = = = = = = = = = 6.6.6.6.6.6.6.6.6.6.6.",
"6.6.6.6.6.6.6.6.6.6.6.6.5.5.<.{ @.l - & = = $ & = & = & # = & % = % = = = % = = = = = = = = = = = = = = 6.6.6.6.6.6.6.6.6.6.6.6.",
"6.6.6.6.6.6.6.6.6.6.6.6.6.5.<.{ @.l * & = & 5.3.2.3.3.2.3.3.2.4.2.4.3.2.4.%.= = = = = = = = = = = = = 6.6.6.6.6.6.6.6.6.6.6.6.6.",
"6.6.6.6.6.6.6.6.6.6.6.6.6.6.6.} @.l = = = $ 2.1.,.1.>.1.,.,.1.:.1.>.>.1.:.&.= = = = = = = = = = = 6.6.6.6.6.6.6.6.6.6.6.6.6.6.6.",
"6.6.6.6.6.6.6.6.6.6.6.6.6.6.6.6.@.l = = = =                     .         O = = = = & = & & = = 6.6.6.6.6.6.6.6.6.6.6.6.6.6.6.6.",
"6.6.6.6.6.6.6.6.6.6.6.6.6.6.6.6.6.6.= = = = = = = = = = = = = = = = = = = = = = = = = = = - 6.6.6.6.6.6.6.6.6.6.6.6.6.6.6.6.6.6.",
"6.6.6.6.6.6.6.6.6.6.6.6.6.6.6.6.6.6.6.6.= = = = = = = = = = = = = = = = = = = = = = = = 6.6.6.6.6.6.6.6.6.6.6.6.6.6.6.6.6.6.6.6.",
"6.6.6.6.6.6.6.6.6.6.6.6.6.6.6.6.6.6.6.6.6.6.6.= = = = = = = = & = = = = = = = = = 6.6.6.6.6.6.6.6.6.6.6.6.6.6.6.6.6.6.6.6.6.6.6.",
"6.6.6.6.6.6.6.6.6.6.6.6.6.6.6.6.6.6.6.6.6.6.6.6.6.6.6.6.i i ; = = ; i i 6.6.6.6.6.6.6.6.6.6.6.6.6.6.6.6.6.6.6.6.6.6.6.6.6.6.6.6."
};
